<?xml version="1.0" encoding="utf-8"?>
<svg xmlns="http://www.w3.org/2000/svg" viewBox="159.2034 165.7146 185.5 183.7" width="185.5px" height="183.7px">
  <defs>
    <clipPath id="clippath-1">
      <path class="cls-1" d="M817.3,408.1h-122v183.7h122c35.1,0,63.5-28.1,63.5-62.9v-57.9c0-34.7-28.4-62.9-63.5-62.9ZM756.8,562.8h-18.6v-36.8h18.6c10.3,0,18.6,8.2,18.6,18.4s-8.3,18.4-18.6,18.4ZM756.8,518.2h-18.6v-36.8h18.6c10.3,0,18.6,8.2,18.6,18.4s-8.3,18.4-18.6,18.4ZM756.8,473.6h-18.6v-36.8h18.6c10.3,0,18.6,8.2,18.6,18.4s-8.3,18.4-18.6,18.4ZM799.5,518.2h-18.6v-36.8h18.6c10.3,0,18.6,8.2,18.6,18.4s-8.3,18.4-18.6,18.4ZM818.7,473.6h-37.7v-36.8h37.7c10.3,0,18.6,8.2,18.6,18.4s-8.3,18.4-18.6,18.4Z" style="fill: none;"/>
    </clipPath>
  </defs>
  <g class="cls-2" style="clip-path: url(&quot;#clippath-1&quot;);" transform="matrix(1, 0, 0, 1, -536.0965728759766, -242.38533782958984)">
    <g>
      <rect class="cls-3" x="613.6" y="382.9" width="725.9" height="235.1" style="fill: rgb(81, 81, 81);"/>
      <path class="cls-4" d="M777.9,575.4c-14.2,2.7-28.4,2.9-41.1,9.5-14.9,7.7-23.5,15.9-36.8,30.2,8.3-20.3,17.7-30.4,26-36.5,9.7-7.1,21.1-7.3,51.9-3.3h0Z" style="fill-rule: evenodd;"/>
      <path class="cls-4" d="M777.9,539.3c-13.8,8.6-19.7,8.2-26.2,11.2-5.2,2.3-10.3,4.9-18.7,9.6-17.3,9.5-24.6,27.3-36.9,37.5,13-25.7,17.2-39.5,28.4-47.3,9.5-6.6,24.2-5.9,53.4-10.9h0Z" style="fill-rule: evenodd;"/>
      <path class="cls-4" d="M736.8,534.4c-19.1,4.9-27.4,5.3-37.2,30.7-.6,1.6-13.8,30.7-24.8,39.7,4.1-5.9,5.8-31.4,16.9-52.1,6.9-12.7,23.9-21.5,45.1-18.4h0Z" style="fill-rule: evenodd;"/>
      <path class="cls-4" d="M753.1,618h11c.6-16.6,7.1-21.3,13.3-28.2-13.2,6.6-20.4,17.1-24.3,28.2h0Z" style="fill-rule: evenodd;"/>
      <path class="cls-4" d="M756.9,590.1c-6.7,10.3-11.5,19.3-14.9,28h-14.7c6.5-10.6,16.9-19.2,29.7-28h0Z" style="fill-rule: evenodd;"/>
      <path class="cls-4" d="M778.3,384.9c8.6,17.5,25.2,26.5,35.1,43.2,9.2,15.6,10.1,39.4,6.6,55.8-3.2,15.1-5.3,25.8-10.3,37.5-13.5,33.8-32.8,59.9,2.9,87.4,4,3,8.2,6,12.5,9.2h-15.1c-5.7-4.7-11.4-10.4-16-18.7.6,7.5,2.6,13.5,5.5,18.7h-8.4c-9.7-17.1-12.1-36-8.9-51.6h0c.1-5.1,1.4-11.7,4.2-21.2,2.7-9.2,5.3-19.9.9-19.1-10.4,2.1-21.9,2.8-33.2,2.1-12.6-.7-20.8-3-45.8-14.5-3.6-1.6-10.2-4-13.6-5.6,13.9,2.9,61.6,17.5,82.1,9.2,25.7-10.5,43.4-49.1,33-77.1-8.6-23-23.2-29.7-31.5-55.4h0Z" style="fill-rule: evenodd;"/>
      <path class="cls-4" d="M841.5,618c-7-4.1-14.3-8.2-21.9-14.6-10.6-9-15-22.6-15.2-29.6-.5-15.6,16.6-50.2,22.4-72.1-.7,28.9-5.1,34.4-5.1,58.6s26.4,34.4,45.3,55.9c.5.6,1,1.2,1.4,1.8h-27Z" style="fill-rule: evenodd;"/>
      <path class="cls-4" d="M890.5,618c-1.5-13.6-4-25.4-10.2-40.2-16.1-38.4-24.2-52.9-20.1-83.3-8.2,15.1-14.5,46.5-1.2,66.5,7.7,11.6,17.5,30.1,21.7,57h-1.4c-7.9-21.2-20.6-38.8-30-51.7-11.2-15.3-18.8-32.4-17-51,3.4-35.5,12.7-40.4,3.9-66-5.8-9.9-7-14.7-15.8-24.8,15.3,12.5,14.4,10.5,27.3,27,17.5,22.3,19.5,32.8,44.3,49.9,6.3,4.4,14.8,12.7,31.9,22.3,43.6,24.5,74.8,29.7,113.3,61.9-25.6-15.2-40.2-16.6-70.7-24-34.3-8.2-62-25.3-90.6-61.3,1.6,47.9,18,90.5,34.5,117.7h-20ZM844.7,545.7c-6.7-12.9-6.7-34,3-68,2.7,10.6,1.9,19.2-.6,27-2.4,7.3-6.3,21.5-2.4,41h0Z" style="fill-rule: evenodd;"/>
      <path class="cls-4" d="M928.5,618c-5.4-10-9.9-22.8-14.7-40.8-2.6-9.7-2.6-21.2-1.5-31.8,29.1,28.9,50.7,21.8,80,29.8,32.5,8.8,43.4,24.5,62.3,31.7,9.7,3.7,14.8,7.3,17.5,11.1h-12.9c-14.9-7.9-47.8.8-62.1-1.8-20.8-3.6-29.7-26.2-58.8-29.7-3,6.6-7,17.3-2.2,31.4h-7.5ZM1082,618c.3-6.3-.1-13.4-2.2-22-2.5-10.3-10.8-24-22.1-34.5-9.7-9-16.8-15.6-27.5-19.5-35.2-12.8-57.5-33.2-65.4-50.1-7.7-16.6-10.4-20.4-10.1-39.5,3,21.2,16,36.5,24.5,44.3,19.3,17.5,27.2,20.6,57.3,34.1,17.6,7.9,41.7,37.7,48.7,64.3,2.1,8.2,2.5,15.6,2.3,22.7h-5.3ZM1031.5,604.5c-15.7,2.6-40.2,4.5-61.5-21.4,16.3-1.6,31.4,7,43.3,13.6,7.1,3.9,12.1,6,18.2,7.9h0Z" style="fill-rule: evenodd;"/>
      <path class="cls-4" d="M1288.4,590.5c-5.8-23.3-13.6-38.6-20.4-46.6-16.1-19.1-17-25-14.7-66.4,2.6,15,2.4,19.1,7.5,33.6,4.2,11.9,12.4,17.5,19.7,31.1,4.9,9.1,7.8,30,7.8,48.3h0Z" style="fill-rule: evenodd;"/>
      <path class="cls-4" d="M1282.6,605.1c-18.1-27.4-44.1-32.7-52.1-59.7-4.6-15.6-5.7-44.9,3-81.8,6.2-26.5,13.6-51.7,27.9-74.7-6.8,18-8.9,28-12.5,45.6-6.6,33-17.9,82.1-4.7,114.8,6.7,16.6,28.7,25.6,38.4,55.8h0Z" style="fill-rule: evenodd;"/>
      <path class="cls-4" d="M1212.2,528.6c4.2,18.2,17.7,54.7,35.1,64.6,7.4,4.2,15,9.6,20.6,12.7l-2.9-.5c-13.8-3.6-31.7-6.4-41.5-14.9-13-11.1-12.8-45.8-11.4-61.9h0Z" style="fill-rule: evenodd;"/>
      <path class="cls-4" d="M1132.8,609.1c10.3-44.6,25.3-64.4,56.9-94.3,23-21.7,19.4-54.6,30.5-85.9-4.3,23.9-1.5,43-5,64.7-5.1,31.7-18.8,34.7-39.7,52.8-19,16.5-33.2,39.6-42.6,62.6h0Z" style="fill-rule: evenodd;"/>
      <path class="cls-4" d="M1202.7,441.7c-4.2,13.2-5.3,18.2-6.4,28.1-2.1,20.9-5.7,36.1-21.9,48.5,5.1-10.5,7.1-15.8,8-24.7,2.9-26.8,6.9-31.9,20.3-51.9h0Z" style="fill-rule: evenodd;"/>
      <path class="cls-4" d="M1231.4,398.6c-54.2,35.3-51,48.5-60.8,108.2-3-26.4-.8-49.1,5.5-64.3,9.2-22.4,19.4-28.4,55.3-43.9h0Z" style="fill-rule: evenodd;"/>
      <path class="cls-4" d="M1184,404.3c-26,35-33.4,85.2-24.4,119.4.3,1.1,2.4,12.6,1.6,12.6s-3.3-4.2-5-11c-23-60-8.3-87.8,27.7-121.1h0Z" style="fill-rule: evenodd;"/>
      <path class="cls-4" d="M1136.5,477.1c-26.9-20.7-29.9-45.3-20-75.6l2.5-7.5,2.5-7.5c-2,29.1-4.6,66,15,90.6h0Z" style="fill-rule: evenodd;"/>
      <path class="cls-4" d="M740,477.3c-53.4-13.6-57.8-22.3-51-63.6,1.2-6.9,2.6-14.6,4.2-23.4.9,22.7,3.2,42.6,11.6,57.2,6.9,12,18,19.5,35.1,29.7h0Z" style="fill-rule: evenodd;"/>
      <path class="cls-4" d="M685.9,393.4c-17.9,23.8-32.5,75.4-15.2,103.9,15.5,25.6,16.9,32.8,5.4,64.3-4.8,13.2-10.3,25.7-15.2,39.2l2.1-14.4c4.9-29.6,15.6-51.7-6-73.9-1.3,6.9-2.2,14.7-.3,30.7-5.3-10.6-7.9-16.8-9.7-28.8-3-20.1-2-46.7,4.3-65.1,7.9-23,22.3-44.9,34.7-55.8h0Z" style="fill-rule: evenodd;"/>
      <path class="cls-4" d="M1101.5,611c-12.5-19-16-35.6-16.5-46.7-.6-15.8,4-24.1-11.9-44.9l-4.5-7.1c7.3,5.5,15.6,9.7,19.9,20.4,6,15.2,6.1,21.7,6.9,29.1,1.6,14.1-6,24.2,6.1,49.3h0Z" style="fill-rule: evenodd;"/>
      <path class="cls-4" d="M1078,553.2c-11.6-9-30.4-28.2-46.2-38.3-23-14.8-26-7.1-44.8-23.4-6.2-5.4-17.5-16.1-23.6-39.7,21,1.8,31.9,4.5,39.5,8.5,8.8,4.5,18.5,11.2,24.9,15.6,12.1,8.1,10.3,5.9,27.5,25.2-7.8-5.1-17.3-10.6-26.5-14-10.4-3.7-20.3-5.1-26.8-9.9,5.2,6.2,10.3,12.8,22,19.1,12.5,6.9,43.7,37.1,54,56.9h0Z" style="fill-rule: evenodd;"/>
      <path class="cls-4" d="M1302.1,500.5c12.1-16.7,19.7-49.5,20.2-56.8,1.5-18.9,10.6-30.9,10.6-30.5-.1,3.2-3.4,11.5-2.2,23.8,1.9,21.4,5,36.9,8.8,48.9v28c-.3-1-.8-2.1-1.1-3.1-6.7-19.6-8.2-28.5-13.1-40.8-2.5,10.8-15.8,25.9-23.2,30.5h0Z" style="fill-rule: evenodd;"/>
      <path class="cls-4" d="M658.2,618c0-4.5,0-8.9,0-13.4-1,4.9-2.1,9.3-3.3,13.4h3.4Z" style="fill-rule: evenodd;"/>
      <path class="cls-4" d="M633.9,484.3c3.6-39.3,11-34.1,19.7-63.3,3.7-12.5,4.5-25.1,4.6-38h-3.4c-11.3,41-27.7,47.8-20.9,101.3h0Z" style="fill-rule: evenodd;"/>
      <path class="cls-4" d="M613.6,608.8c8.8-8.6,17.2-18,23.7-32.2,7.3-15.8,7.1-13-2.3-27.5-5.3-8.2-14.8-18-21.4-35.2v-28c10,31.5,24.9,38.6,37.3,66.4,5.5,12.3,7.7,27.8,6.8,46.3-3.4,2.9-6.8,5.3-9.9,7.7-4.3,3.1-8.2,5.9-11.4,9.5-.7.8-1.4,1.5-2.1,2.3h-20.6v-9.2Z" style="fill-rule: evenodd;"/>
      <path class="cls-4" d="M1330,618c3.2-3.2,6.4-6.2,9.5-9.2v9.2h-9.5Z" style="fill-rule: evenodd;"/>
      <path class="cls-4" d="M1294.8,494.2c4-34.1-6.3-43.1,11.8-80,6.7-13.7,15-22.9,23.4-31.3h9.5v19.4c-8,7.3-15.8,14.4-21.2,21.4-24.2,31-14.4,40.2-23.4,70.5h0Z" style="fill-rule: evenodd;"/>
      <path class="cls-4" d="M613.6,402.3v-19.4h20.6c-6.2,6.4-13.5,12.9-20.6,19.4h0Z" style="fill-rule: evenodd;"/>
      <path class="cls-4" d="M1307.2,618c.2-.3.4-.8.6-1.1,2.7-5,5.2-10.2,9.1-19,7.9-18,3-36.6,6.6-52.2,5.2,28.4,10.3,41.9,6.1,54.9-1.8,5.8-6,10.8-12.5,17.4h-9.9Z" style="fill-rule: evenodd;"/>
      <path class="cls-4" d="M1293.7,406.6c5.3-14.3,10.1-18,13.4-23.6h9.9c-5.9,6-13.7,13.3-23.3,23.6h0Z" style="fill-rule: evenodd;"/>
      <path class="cls-4" d="M1165.7,403.8c-10.5,6.8-20.1,10.2-24.3,20.3-6.6,16.3-5.9,24-2.9,38.6-16.4-24.5-11.7-49.9-2.9-71.1.8-1.8,1.3-4.5,2.8-8.6h12.9c-3.8,7.9-6.6,15.9-8.4,22.8,11.7-3.8,24.1-10.8,32.2-22.8h10.8c-5.4,8.4-12.6,15.8-20.2,20.8h0ZM1221.8,382.9c13.8,4.5,36.9,1.2,36.2,1.5-25.9,11-42,10.7-48,8.7-4-1.4-6.9-5.4-8.8-10.2h20.6Z" style="fill-rule: evenodd;"/>
      <path class="cls-4" d="M1138.4,618c3.2-8.5,10.3-23.4,31.6-49.7,11.2-15.1,21.8-25.6,36.5-37.5-2.2,8.3-6.2,32.5-4.7,49.6.9,10.1,7.1,28.4,13.2,33.9,1.8,1.6,4.2,2.8,6.9,3.7h-20.6c-3.6-8.8-4.5-20.3-5.3-24.1-1.4,8.2-4.9,16.5-9.9,24.1h-10.8c.8-1.2,1.5-2.5,2.3-3.8,5.3-9.7,7.5-20.6,6.8-31.9-12.2,4.2-22.1,15.8-29.3,28.8-1.2,2.2-2.4,4.5-3.5,6.8h-12.9Z" style="fill-rule: evenodd;"/>
      <path class="cls-4" d="M956.1,412c-12.4-8.4-20.8-16.4-27.6-29.1h7.5c2.9,8.5,8.9,18.2,20.1,29.1h0ZM1072.1,382.9c3.3,4.5,3.3,9.5,3.8,15.5.3,3.4.7,7,1.2,10.6,1.9-8.4,4.5-16.2,4.9-26h5.3c-.8,19.2-6.9,36-.9,57.1,3.4,7.7,6.2,10.8,12.7,16.4,26.5,22.7,49.5,47,48.4,84.6-13.5-64.7-69.2-38.4-76.9-115.1-.9-8.7,3.5-28.3-7.3-39.9-1.1-1.2-2.5-2.2-4-3h12.9Z" style="fill-rule: evenodd;"/>
      <path class="cls-4" d="M825.1,382.9c7.7,5.8,15.6,12.3,22.1,20.8,12.9,17,21.3,43.2,37.6,63.2,14,17.1,13,15.8,44.6,35.6,19.4,7.5,12.3-.3,6.6-19.3-4.1-13.5-6.6-33.2-7.9-47.5,5.5,15.4,7.7,24.9,11.2,35,8.5,24.9,16.6,43.5,42.9,60,17.3,10.8,40.6,23.8,54.8,34.2,22.7,16.6,26.8,27.9,30.8,39.7-4.6-8.7-14.9-23.5-36-36.5-18.8-11.6-48.5-24-55.8-27.7-39.7-20.6-78.9-31.7-115.9-88.6-8.7-13.5-23.3-25.7-48.4-45.2-8.9-6.9-15.7-15-20.6-23.6h8.4c12.1,21,40.2,27.3,56.6,52.3-8.3-21.2-22.4-33.1-27.6-38-5.2-4.9-11.9-9-18.5-14.4h15.1Z" style="fill-rule: evenodd;"/>
      <path class="cls-4" d="M915.9,471.7c-48-24.7-41-56.6-49.6-68.2-7.4-10-15.8-15.2-24.9-20.6h27c10.8,13.3,11.9,27.7,17.5,44.3,4.4,13.1,16.9,31.6,29.9,44.4h0Z" style="fill-rule: evenodd;"/>
      <path class="cls-4" d="M959,382.9c7.3,11,16.6,19.4,28.3,22.7,22.2,6.2,44.9.6,57.1-19.4-1.2,11-12.3,25.6-22.7,30.1-8.8,3.8-19.4,5.1-28.2,4-22.1-2.7-33.1-19.3-39.3-37.4h4.8Z" style="fill-rule: evenodd;"/>
      <path class="cls-4" d="M949.5,600.3c2.7,6.4,5.9,12.3,9.5,17.7h-4.8c-2-5.9-3.5-12-4.7-17.7h0Z" style="fill-rule: evenodd;"/>
      <path class="cls-4" d="M1113.5,616.2c-6-5.8-11.9-19.5-11.7-27,.5-18.4,10.5-36.2.5-53-11.6-19.5-23.4-35.6-57.8-60.6-28.5-20.7-38-28.8-72.8-36.9-11.6-2.7-20.1-6.8-26.5-10.3-17.2-9.8-34.6-23.3-41.6-34.7-5.9,24.9,4,48,17.6,68.1-13.8-8.3-26.7-30.1-28.6-55.5-.6-8.7-1.2-16.3-2-23.4h20c7.5,12.2,14.9,21.3,21.2,26.4,10.3,10.1,21.2,14.2,35.3,16.6,14.7,2.5,23.2-.3,33.6,3.3,15.5,5.3,22.3,15.5,41.1,29.9-2.6-10.8-3.5-19.7-3-27.3.8-11.9,3-25.2,12.7-35.6-3.1,13.2-1.4,26.5.8,35.6,1.5,6.4,4,13.1,6.1,20,13.1,41.9,57.3,43.6,69.3,73.6,3.6,9,6.9,19.9,1.5,36.1-6.9,21.2-17.9,23.4-15.6,54.6h0ZM880.7,382.9c.3,2.1.6,4.2.8,6.4-.6-2.2-1.4-4.2-2.2-6.4h1.4ZM1092.6,506.5c24.5,11.8,30.4,26.8,29.5,39.4-.7,9-4.6,14.6-9.2,27.3,0-7,5.4-22.4,2.8-34.5-1.9-9-6.8-21.4-23.2-32.2h0Z" style="fill-rule: evenodd;"/>
      <path class="cls-4" d="M1294.4,612.1c5.7-36.5,11.1-54.7-14.3-93.2-19.9-30.3-28.6-51.3-18.7-82.7,5.8-18.1,15.1-35.2,24.9-48.7-4.6,11.1-8.4,23.8-10.8,31.8-10.1,32.8-5.2,50.1,9.9,77.8,27.3,50,25,73.7,9,115.1h0Z" style="fill-rule: evenodd;"/>
      <path class="cls-4" d="M674.3,475.2c10.6-.1,21.2-.6,34.6,3.5,15.1,4.6,33,13.9,44.6,17,9.9,2.6,29.8,1,38.1-4.5-1.7,3.4-4,6.9-6.8,10.5-4.6,5.7-15.5,8.9-25.4,7.2-16.6-2.9-27.7-8.8-46-17.5-11.4-5.4-31.6-14.7-39.1-16.2h0ZM772.1,492.3c2.5-15.1-2.3-22.1-6.6-31.2-5.5-11.6-13.7-20.9-15.6-36.7-1-8-2.5-25.4,3.2-41.5h11v3c0,20.6,13.3,34.7,22.2,51.4.7,1.3,1.4,2.6,2.1,4,6.3,27.7-2.7,43.1-16.4,51h0ZM779.3,471.6c3.8-19.2.8-26.8-4-34.6-6-9.8-14.7-18.5-16-34.7-1.4,11.5-2.5,25.7,5.8,37.2,4.7,6.6,14.3,20.1,14.2,32.1h0Z" style="fill-rule: evenodd;"/>
      <path class="cls-4" d="M742,382.9c-3.8,9.7-5.8,18.9-6.7,29.1-1.2,12.7-1.6,34.3.2,49.4-18.8-37.8-19-60.8-8.2-78.5h14.7Z" style="fill-rule: evenodd;"/>
    </g>
  </g>
</svg>